<?xml version="1.0" encoding="UTF-8" standalone="no"?>
<svg width="64" height="64" viewBox="0 0 64 64" xmlns="http://www.w3.org/2000/svg">
    <rect width="64" height="64" fill="#2D5A27" />
<path d="M 13,10 L 15,7 L 17,10" stroke="#3A7A32" stroke-width="1" fill="none" />
<path d="M 13,74 L 15,71 L 17,74" stroke="#3A7A32" stroke-width="1" fill="none" />
<path d="M 77,10 L 79,7 L 81,10" stroke="#3A7A32" stroke-width="1" fill="none" />
<path d="M 77,74 L 79,71 L 81,74" stroke="#3A7A32" stroke-width="1" fill="none" />
<path d="M -21,15 L -19,12 L -17,15" stroke="#3A7A32" stroke-width="1" fill="none" />
<path d="M -21,79 L -19,76 L -17,79" stroke="#3A7A32" stroke-width="1" fill="none" />
<path d="M 43,15 L 45,12 L 47,15" stroke="#3A7A32" stroke-width="1" fill="none" />
<path d="M 43,79 L 45,76 L 47,79" stroke="#3A7A32" stroke-width="1" fill="none" />
<path d="M 8,-14 L 10,-17 L 12,-14" stroke="#3A7A32" stroke-width="1" fill="none" />
<path d="M 8,50 L 10,47 L 12,50" stroke="#3A7A32" stroke-width="1" fill="none" />
<path d="M 72,-14 L 74,-17 L 76,-14" stroke="#3A7A32" stroke-width="1" fill="none" />
<path d="M 72,50 L 74,47 L 76,50" stroke="#3A7A32" stroke-width="1" fill="none" />
<path d="M -11,-19 L -9,-22 L -7,-19" stroke="#3A7A32" stroke-width="1" fill="none" />
<path d="M -11,45 L -9,42 L -7,45" stroke="#3A7A32" stroke-width="1" fill="none" />
<path d="M 53,-19 L 55,-22 L 57,-19" stroke="#3A7A32" stroke-width="1" fill="none" />
<path d="M 53,45 L 55,42 L 57,45" stroke="#3A7A32" stroke-width="1" fill="none" />
<path d="M 30,5 L 32,2 L 34,5" stroke="#3A7A32" stroke-width="1" fill="none" />
<path d="M 30,69 L 32,66 L 34,69" stroke="#3A7A32" stroke-width="1" fill="none" />
<path d="M 30,-6 L 32,-9 L 34,-6" stroke="#3A7A32" stroke-width="1" fill="none" />
<path d="M 30,58 L 32,55 L 34,58" stroke="#3A7A32" stroke-width="1" fill="none" />
<path d="M 3,32 L 5,29 L 7,32" stroke="#3A7A32" stroke-width="1" fill="none" />
<path d="M 67,32 L 69,29 L 71,32" stroke="#3A7A32" stroke-width="1" fill="none" />
<path d="M -7,32 L -5,29 L -3,32" stroke="#3A7A32" stroke-width="1" fill="none" />
<path d="M 57,32 L 59,29 L 61,32" stroke="#3A7A32" stroke-width="1" fill="none" />
    <!-- Foreground -->
    <path d="M 20,45 Q 32,20 44,45 Z" fill="#00FF00" opacity="0.8"/>
    <text x="32" y="60" font-family="sans-serif" font-size="8" font-weight="bold" fill="#000" text-anchor="middle">forest_greenslime1</text>
    <text x="32" y="59" font-family="sans-serif" font-size="8" font-weight="bold" fill="#FFF" text-anchor="middle">forest_greenslime1</text>
</svg>